<svg width="39" height="39" viewBox="0 0 39 39" fill="none" xmlns="http://www.w3.org/2000/svg">
<ellipse cx="19.4245" cy="19.4472" rx="19.4245" ry="19.4472" fill="#7AC751"/>
<g clip-path="url(#clip0_870_28)">
<path d="M28.3273 25.1193H26.7086V23.4987C26.7086 23.2838 26.6233 23.0776 26.4715 22.9257C26.3198 22.7737 26.1139 22.6884 25.8992 22.6884C25.6846 22.6884 25.4787 22.7737 25.3269 22.9257C25.1752 23.0776 25.0899 23.2838 25.0899 23.4987V25.1193H23.4712C23.2565 25.1193 23.0507 25.2046 22.8989 25.3566C22.7471 25.5086 22.6618 25.7147 22.6618 25.9296C22.6618 26.1445 22.7471 26.3506 22.8989 26.5025C23.0507 26.6545 23.2565 26.7399 23.4712 26.7399H25.0899V28.3605C25.0899 28.5754 25.1752 28.7815 25.3269 28.9334C25.4787 29.0854 25.6846 29.1708 25.8992 29.1708C26.1139 29.1708 26.3198 29.0854 26.4715 28.9334C26.6233 28.7815 26.7086 28.5754 26.7086 28.3605V26.7399H28.3273C28.542 26.7399 28.7478 26.6545 28.8996 26.5025C29.0514 26.3506 29.1367 26.1445 29.1367 25.9296C29.1367 25.7147 29.0514 25.5086 28.8996 25.3566C28.7478 25.2046 28.542 25.1193 28.3273 25.1193Z" fill="white"/>
<path d="M26.7086 14.5853H24.2806C24.2806 13.2959 23.7689 12.0593 22.8582 11.1475C21.9475 10.2357 20.7124 9.72351 19.4244 9.72351C18.1365 9.72351 16.9013 10.2357 15.9907 11.1475C15.08 12.0593 14.5683 13.2959 14.5683 14.5853H12.1403C11.4963 14.5853 10.8787 14.8414 10.4234 15.2973C9.96802 15.7532 9.71221 16.3715 9.71221 17.0162V25.1192C9.7135 26.1934 10.1403 27.2231 10.8989 27.9827C11.6575 28.7422 12.6861 29.1695 13.759 29.1707H21.0431C21.2578 29.1707 21.4637 29.0854 21.6154 28.9334C21.7672 28.7815 21.8525 28.5754 21.8525 28.3604C21.8525 28.1455 21.7672 27.9394 21.6154 27.7875C21.4637 27.6355 21.2578 27.5501 21.0431 27.5501H13.759C13.115 27.5501 12.4974 27.294 12.0421 26.8381C11.5867 26.3823 11.3309 25.764 11.3309 25.1192V17.0162C11.3309 16.8013 11.4162 16.5952 11.568 16.4433C11.7198 16.2913 11.9256 16.2059 12.1403 16.2059H14.5683V17.8265C14.5683 18.0414 14.6536 18.2475 14.8054 18.3995C14.9572 18.5515 15.163 18.6368 15.3777 18.6368C15.5923 18.6368 15.7982 18.5515 15.95 18.3995C16.1018 18.2475 16.187 18.0414 16.187 17.8265V16.2059H22.6619V17.8265C22.6619 18.0414 22.7471 18.2475 22.8989 18.3995C23.0507 18.5515 23.2566 18.6368 23.4712 18.6368C23.6859 18.6368 23.8917 18.5515 24.0435 18.3995C24.1953 18.2475 24.2806 18.0414 24.2806 17.8265V16.2059H26.7086C26.9233 16.2059 27.1291 16.2913 27.2809 16.4433C27.4327 16.5952 27.518 16.8013 27.518 17.0162V21.0677C27.518 21.2826 27.6032 21.4887 27.755 21.6407C27.9068 21.7927 28.1127 21.878 28.3273 21.878C28.542 21.878 28.7478 21.7927 28.8996 21.6407C29.0514 21.4887 29.1367 21.2826 29.1367 21.0677V17.0162C29.1367 16.3715 28.8809 15.7532 28.4255 15.2973C27.9702 14.8414 27.3526 14.5853 26.7086 14.5853ZM16.187 14.5853C16.187 13.7257 16.5281 12.9013 17.1352 12.2934C17.7424 11.6856 18.5658 11.3441 19.4244 11.3441C20.2831 11.3441 21.1065 11.6856 21.7136 12.2934C22.3208 12.9013 22.6619 13.7257 22.6619 14.5853H16.187Z" fill="white"/>
</g>
<defs>
<clipPath id="clip0_870_28">
<rect width="19.4245" height="19.4472" fill="white" transform="translate(9.71221 9.72351)"/>
</clipPath>
</defs>
</svg>
