<svg width="40" height="40" viewBox="0 0 40 40" fill="none" xmlns="http://www.w3.org/2000/svg">
<ellipse cx="19.777" cy="20.1406" rx="19.4245" ry="19.4472" fill="white"/>
<g clip-path="url(#clip0_2_377)">
<path d="M13.8647 14.4372C14.6251 13.6169 15.5092 13.0003 16.4509 12.5762C19.5807 11.1669 23.3897 11.8942 25.7576 14.5989L27.3933 13.1977C27.4842 13.1198 27.63 13.1918 27.6387 13.3138L28.0455 18.8018C28.0506 18.8932 27.9662 18.9654 27.88 18.9436L22.5301 17.696C22.4083 17.6653 22.3625 17.5131 22.4534 17.4353L24.0858 16.0368C22.5209 14.265 20.1035 13.6795 17.9755 14.36C17.171 14.6158 16.4104 15.0479 15.7562 15.6703C14.8567 16.5253 14.2928 17.6218 14.0695 18.7812C13.9518 19.3998 13.3454 19.7955 12.7326 19.6507C12.1495 19.5143 11.7853 18.937 11.9007 18.3485C12.1725 16.9168 12.8297 15.5547 13.8647 14.4372ZM25.3205 21.4739C25.1032 22.6338 24.5361 23.7331 23.6339 24.5848C22.9764 25.21 22.213 25.6389 21.4145 25.8952C19.2865 26.5757 16.8659 25.9929 15.3042 24.2184L16.9366 22.8199C17.0275 22.742 16.979 22.5866 16.8599 22.5591L11.5072 21.3083C11.4178 21.2892 11.3334 21.3615 11.3417 21.4501L11.7457 26.9348C11.7572 27.0601 11.9003 27.1288 11.9912 27.051L13.6268 25.6497C15.9915 28.3573 19.8033 29.0878 22.9336 27.6725C23.8753 27.2484 24.7566 26.6285 25.5198 25.8114C26.5576 24.6972 27.2148 23.335 27.4865 21.9034C27.5991 21.3117 27.2378 20.7376 26.6546 20.6012C26.0446 20.4597 25.4383 20.8553 25.3205 21.4739Z" fill="#757575" stroke="white" stroke-width="0.3"/>
</g>
<defs>
<clipPath id="clip0_2_377">
<rect width="20.9964" height="20.9926" fill="white" transform="matrix(0.649713 0.76018 -0.759427 0.650592 20.8421 5.31433)"/>
</clipPath>
</defs>
</svg>
