<svg width="39" height="39" viewBox="0 0 39 39" fill="none" xmlns="http://www.w3.org/2000/svg">
<ellipse cx="19.4245" cy="19.4472" rx="19.4245" ry="19.4472" fill="#7AC751"/>
<g clip-path="url(#clip0_870_34)">
<path d="M13.5121 13.7439C14.2726 12.9235 15.1566 12.3069 16.0984 11.8828C19.2282 10.4736 23.0372 11.2008 25.4051 13.9056L27.0408 12.5043C27.1317 12.4265 27.2775 12.4985 27.2862 12.6205L27.693 18.1084C27.698 18.1998 27.6137 18.2721 27.5275 18.2502L22.1776 17.0026C22.0557 16.9719 22.01 16.8197 22.1009 16.7419L23.7333 15.3434C22.1684 13.5717 19.751 12.9861 17.623 13.6666C16.8185 13.9224 16.0579 14.3546 15.4036 14.9769C14.5041 15.8319 13.9403 16.9284 13.717 18.0878C13.5992 18.7065 12.9929 19.1021 12.3801 18.9573C11.7969 18.8209 11.4328 18.2436 11.5482 17.6551C11.82 16.2235 12.4771 14.8613 13.5121 13.7439V13.7439ZM24.968 20.7806C24.7507 21.9405 24.1836 23.0397 23.2814 23.8915C22.6239 24.5166 21.8605 24.9455 21.062 25.2018C18.934 25.8823 16.5134 25.2996 14.9517 23.525L16.5841 22.1265C16.675 22.0487 16.6265 21.8933 16.5074 21.8658L11.1547 20.615C11.0653 20.5959 10.9809 20.6682 10.9892 20.7568L11.3932 26.2415C11.4047 26.3667 11.5478 26.4355 11.6387 26.3576L13.2743 24.9564C15.639 27.6639 19.4508 28.3944 22.581 26.9791C23.5228 26.555 24.404 25.9352 25.1673 25.1181C26.2051 24.0039 26.8622 22.6417 27.134 21.2101C27.2466 20.6183 26.8853 20.0442 26.3021 19.9078C25.6921 19.7663 25.0858 20.1619 24.968 20.7806V20.7806Z" fill="white" stroke="white" stroke-width="0.3"/>
</g>
<defs>
<clipPath id="clip0_870_34">
<rect width="20.9964" height="20.9926" fill="white" transform="matrix(0.649713 0.76018 -0.759427 0.650592 20.4896 4.62097)"/>
</clipPath>
</defs>
</svg>
