<svg width="39" height="39" viewBox="0 0 39 39" fill="none" xmlns="http://www.w3.org/2000/svg">
<ellipse cx="19.4245" cy="19.4472" rx="19.4245" ry="19.4472" fill="#7AC751"/>
<path d="M19.4244 28.7536L11.1836 20.5031C10.0907 19.4091 9.47662 17.9251 9.47653 16.3778C9.47644 14.8304 10.0903 13.3464 11.1831 12.2522C12.2759 11.158 13.7581 10.5432 15.3037 10.5431C16.8492 10.543 18.3315 11.1576 19.4244 12.2517C20.5179 11.1588 21.9998 10.545 23.5448 10.545C25.0899 10.545 26.5718 11.1588 27.6653 12.2517V12.2517C28.7564 13.3467 29.3691 14.8302 29.3691 16.3769C29.3691 17.9236 28.7564 19.4072 27.6653 20.5022L19.4244 28.7536ZM15.3035 12.488C14.5351 12.4879 13.7839 12.7161 13.145 13.1435C12.5061 13.5709 12.0081 14.1785 11.7141 14.8893C11.4201 15.6001 11.3432 16.3822 11.4933 17.1368C11.6433 17.8913 12.0134 18.5843 12.5569 19.1282L19.4244 26.0038L26.292 19.1282C26.6864 18.7421 26.9942 18.2763 27.1948 17.7618C27.3955 17.2474 27.4844 16.696 27.4556 16.1444C27.4269 15.5929 27.2811 15.0538 27.0281 14.563C26.775 14.0722 26.4205 13.6411 25.988 13.2982C25.5556 12.9552 25.0551 12.7085 24.52 12.5743C23.9849 12.4401 23.4273 12.4215 22.8845 12.5198C22.3416 12.6182 21.8259 12.8311 21.3717 13.1445C20.9174 13.4579 20.535 13.8645 20.25 14.3374L19.4244 15.6715L18.5989 14.3374C18.2581 13.7686 17.7747 13.2989 17.1967 12.9748C16.6186 12.6507 15.966 12.4836 15.3035 12.4899V12.488Z" fill="white"/>
</svg>
