<svg width="40" height="40" viewBox="0 0 40 40" fill="none" xmlns="http://www.w3.org/2000/svg">
<ellipse cx="19.777" cy="19.8492" rx="19.4245" ry="19.4472" fill="white"/>
<path d="M19.777 29.1556L11.5362 20.9051C10.4432 19.811 9.82917 18.3271 9.82908 16.7797C9.82899 15.2324 10.4429 13.7484 11.5357 12.6541C12.6285 11.5599 14.1107 10.9452 15.6562 10.9451C17.2018 10.945 18.6841 11.5596 19.777 12.6537C20.8704 11.5608 22.3523 10.947 23.8974 10.947C25.4424 10.947 26.9244 11.5608 28.0178 12.6537V12.6537C29.1089 13.7486 29.7216 15.2322 29.7216 16.7789C29.7216 18.3256 29.1089 19.8092 28.0178 20.9041L19.777 29.1556ZM15.6561 12.8899C14.8876 12.8899 14.1365 13.118 13.4975 13.5455C12.8586 13.9729 12.3607 14.5805 12.0666 15.2913C11.7726 16.0021 11.6958 16.7842 11.8458 17.5387C11.9958 18.2933 12.366 18.9863 12.9095 19.5302L19.777 26.4058L26.6445 19.5302C27.0389 19.1441 27.3467 18.6783 27.5474 18.1638C27.748 17.6493 27.8369 17.098 27.8082 16.5464C27.7794 15.9949 27.6337 15.4558 27.3806 14.965C27.1276 14.4742 26.773 14.043 26.3406 13.7001C25.9081 13.3572 25.4077 13.1105 24.8725 12.9763C24.3374 12.8421 23.7799 12.8235 23.237 12.9218C22.6942 13.0201 22.1785 13.2331 21.7242 13.5465C21.27 13.8599 20.8876 14.2665 20.6025 14.7394L19.777 16.0735L18.9514 14.7394C18.6107 14.1706 18.1273 13.7008 17.5492 13.3768C16.9712 13.0527 16.3186 12.8855 15.6561 12.8919V12.8899Z" fill="#757575"/>
</svg>
