<svg width="39" height="39" viewBox="0 0 39 39" fill="none" xmlns="http://www.w3.org/2000/svg">
<ellipse cx="19.4245" cy="19.4472" rx="19.4245" ry="19.4472" fill="#7AC751"/>
<g clip-path="url(#clip0_870_39)">
<path d="M28.5467 17.356C27.2914 15.3092 24.436 11.8751 19.4245 11.8751C14.413 11.8751 11.5576 15.3092 10.3023 17.356C9.9142 17.9844 9.70864 18.7086 9.70864 19.4474C9.70864 20.1862 9.9142 20.9104 10.3023 21.5388C11.5576 23.5856 14.413 27.0197 19.4245 27.0197C24.436 27.0197 27.2914 23.5856 28.5467 21.5388C28.9347 20.9104 29.1403 20.1862 29.1403 19.4474C29.1403 18.7086 28.9347 17.9844 28.5467 17.356V17.356ZM27.1667 20.6904C26.0887 22.4455 23.6485 25.3991 19.4245 25.3991C15.2005 25.3991 12.7603 22.4455 11.6822 20.6904C11.4516 20.3169 11.3295 19.8865 11.3295 19.4474C11.3295 19.0083 11.4516 18.5779 11.6822 18.2044C12.7603 16.4493 15.2005 13.4957 19.4245 13.4957C23.6485 13.4957 26.0887 16.446 27.1667 18.2044C27.3973 18.5779 27.5194 19.0083 27.5194 19.4474C27.5194 19.8865 27.3973 20.3169 27.1667 20.6904V20.6904Z" fill="white"/>
<path d="M19.4244 15.3959C18.624 15.3959 17.8416 15.6335 17.1762 16.0787C16.5107 16.5239 15.992 17.1566 15.6857 17.8969C15.3794 18.6373 15.2993 19.4519 15.4554 20.2378C15.6116 21.0237 15.997 21.7456 16.5629 22.3122C17.1289 22.8788 17.8499 23.2647 18.6349 23.421C19.4199 23.5774 20.2336 23.4971 20.973 23.1905C21.7125 22.8838 22.3445 22.3645 22.7892 21.6983C23.2338 21.032 23.4712 20.2487 23.4712 19.4474C23.4699 18.3733 23.0431 17.3435 22.2845 16.584C21.5259 15.8244 20.4973 15.3972 19.4244 15.3959V15.3959ZM19.4244 21.8783C18.9442 21.8783 18.4748 21.7357 18.0755 21.4686C17.6762 21.2015 17.365 20.8218 17.1812 20.3776C16.9974 19.9335 16.9493 19.4447 17.043 18.9731C17.1367 18.5016 17.368 18.0684 17.7075 17.7285C18.0471 17.3885 18.4797 17.157 18.9507 17.0632C19.4217 16.9694 19.9099 17.0175 20.3536 17.2015C20.7973 17.3855 21.1765 17.6971 21.4433 18.0968C21.7101 18.4966 21.8525 18.9666 21.8525 19.4474C21.8525 20.0921 21.5967 20.7104 21.1413 21.1663C20.686 21.6222 20.0684 21.8783 19.4244 21.8783Z" fill="white"/>
</g>
<defs>
<clipPath id="clip0_870_39">
<rect width="19.4245" height="19.4472" fill="white" transform="translate(9.71221 9.72375)"/>
</clipPath>
</defs>
</svg>
