<svg width="40" height="40" viewBox="0 0 40 40" fill="none" xmlns="http://www.w3.org/2000/svg">
<ellipse cx="19.777" cy="19.7863" rx="19.4245" ry="19.4472" fill="white"/>
<g clip-path="url(#clip0_2_382)">
<path d="M28.8992 17.6951C27.6439 15.6483 24.7885 12.2142 19.777 12.2142C14.7655 12.2142 11.9101 15.6483 10.6548 17.6951C10.2667 18.3235 10.0612 19.0477 10.0612 19.7865C10.0612 20.5253 10.2667 21.2495 10.6548 21.8779C11.9101 23.9247 14.7655 27.3588 19.777 27.3588C24.7885 27.3588 27.6439 23.9247 28.8992 21.8779C29.2873 21.2495 29.4928 20.5253 29.4928 19.7865C29.4928 19.0477 29.2873 18.3235 28.8992 17.6951ZM27.5192 21.0295C26.4412 22.7846 24.001 25.7382 19.777 25.7382C15.553 25.7382 13.1128 22.7846 12.0347 21.0295C11.8042 20.656 11.682 20.2256 11.682 19.7865C11.682 19.3474 11.8042 18.917 12.0347 18.5435C13.1128 16.7884 15.553 13.8348 19.777 13.8348C24.001 13.8348 26.4412 16.7851 27.5192 18.5435C27.7498 18.917 27.8719 19.3474 27.8719 19.7865C27.8719 20.2256 27.7498 20.656 27.5192 21.0295Z" fill="#757575"/>
<path d="M19.7769 15.735C18.9766 15.735 18.1942 15.9726 17.5287 16.4178C16.8632 16.863 16.3445 17.4957 16.0382 18.236C15.7319 18.9764 15.6518 19.791 15.8079 20.5769C15.9641 21.3628 16.3495 22.0847 16.9154 22.6513C17.4814 23.218 18.2025 23.6038 18.9875 23.7602C19.7724 23.9165 20.5861 23.8362 21.3256 23.5296C22.065 23.2229 22.697 22.7037 23.1417 22.0374C23.5864 21.3711 23.8237 20.5878 23.8237 19.7865C23.8224 18.7124 23.3956 17.6826 22.637 16.9231C21.8784 16.1635 20.8498 15.7363 19.7769 15.735ZM19.7769 22.2174C19.2967 22.2174 18.8273 22.0748 18.428 21.8077C18.0287 21.5406 17.7175 21.1609 17.5337 20.7168C17.3499 20.2726 17.3018 19.7838 17.3955 19.3122C17.4892 18.8407 17.7205 18.4076 18.06 18.0676C18.3996 17.7276 18.8322 17.4961 19.3032 17.4023C19.7742 17.3085 20.2624 17.3566 20.7061 17.5406C21.1498 17.7246 21.529 18.0362 21.7958 18.436C22.0626 18.8357 22.205 19.3057 22.205 19.7865C22.205 20.4312 21.9492 21.0495 21.4938 21.5054C21.0385 21.9613 20.4209 22.2174 19.7769 22.2174Z" fill="#757575"/>
</g>
<defs>
<clipPath id="clip0_2_382">
<rect width="19.4245" height="19.4472" fill="white" transform="translate(10.0647 10.0629)"/>
</clipPath>
</defs>
</svg>
